<?xml version="1.0" encoding="utf-8"?>
<!-- Generator: Adobe Illustrator 16.0.0, SVG Export Plug-In . SVG Version: 6.00 Build 0)  -->
<!DOCTYPE svg PUBLIC "-//W3C//DTD SVG 1.1//EN" "http://www.w3.org/Graphics/SVG/1.1/DTD/svg11.dtd">
<svg version="1.1" id="Targetting" xmlns="http://www.w3.org/2000/svg" xmlns:xlink="http://www.w3.org/1999/xlink" x="0px" y="0px"
	 width="512px" height="512px" viewBox="0 0 512 512" enable-background="new 0 0 512 512" xml:space="preserve">
<circle id="Background_11_" fill="#2C5871" cx="256" cy="256" r="256"/>
<path id="Shadow_11_" opacity="0.1" d="M506.995,306.569l-157.068-151.67L307.75,145.5l-152.163,91.929L149,346l157.084,161.088
	C407.128,487.045,486.762,407.545,506.995,306.569z"/>
<g id="Target_1_">
	<g>
		<g>
			<path fill="#F05161" d="M394.58,256.014c0,76.545-62.045,138.57-138.579,138.57c-76.537,0-138.581-62.025-138.581-138.57
				c0-76.554,62.044-138.598,138.581-138.598C332.535,117.416,394.58,179.46,394.58,256.014z"/>
		</g>
		<g id="Shadow_12_" opacity="0.1">
			<path d="M394.58,256.014c0-5.17-0.302-10.231-0.855-15.222l-59.744-55.824L178.021,327.031l67.069,67.09
				c3.602,0.285,7.238,0.463,10.91,0.463C332.535,394.584,394.58,332.559,394.58,256.014z"/>
		</g>
		<g id="Target_Arrow_1_">
			<g id="Shadow_Board_4_1_">
				<path fill="#E7E3E2" d="M361.48,256.014c0,58.256-47.23,105.49-105.479,105.49c-58.267,0-105.5-47.234-105.5-105.49
					c0-58.283,47.233-105.499,105.5-105.499C314.25,150.515,361.48,197.73,361.48,256.014z"/>
			</g>
			<g id="Board_4_1_">
				<path fill="#F05161" d="M333.98,256.014c0,43.07-34.917,77.969-77.979,77.969c-43.081,0-77.979-34.898-77.979-77.969
					c0-43.081,34.898-77.996,77.979-77.996C299.063,178.018,333.98,212.933,333.98,256.014z"/>
			</g>
			<g id="Shadow_Board_3_1_" opacity="0.1">
				<path d="M226.145,299.119l34.704,34.686c38.893-2.389,70.065-33.26,72.899-72.053l-44.827-44.809L226.145,299.119z"/>
			</g>
			<g id="Board_3_1_">
				<path fill="#E7E3E2" d="M308.457,256.014c0,28.945-23.493,52.445-52.456,52.445c-28.983,0-52.456-23.5-52.456-52.445
					c0-28.981,23.472-52.474,52.456-52.474C284.964,203.54,308.457,227.032,308.457,256.014z"/>
			</g>
			<g id="Board_2_1_">
				<path fill="#F05161" d="M282.595,256.014c0,14.686-11.907,26.594-26.594,26.594c-14.705,0-26.611-11.908-26.611-26.594
					c0-14.704,11.906-26.611,26.611-26.611C270.688,229.402,282.595,241.31,282.595,256.014z"/>
			</g>
			<g id="Shadow_Board_1_1_" opacity="0.1">
				<path d="M261.134,248.171l-10.855,15.255l16.721,16.773c6.326-2.869,11.298-8.162,13.813-14.686L261.134,248.171z"/>
			</g>
			<g id="Board_1_1_">
				<path fill="#E7E3E2" d="M265.376,256.014c0,5.168-4.207,9.357-9.375,9.357c-5.187,0-9.377-4.189-9.377-9.357
					c0-5.188,4.19-9.375,9.377-9.375C261.169,246.639,265.376,250.826,265.376,256.014z"/>
			</g>
		</g>
	</g>
	<path opacity="0.1" fill="#231F20" d="M117.706,247.244l137.313,8.127l-123.946-59.424
		C123.516,211.632,118.845,228.958,117.706,247.244z"/>
	<g>
		<polygon fill="#F05161" points="110.758,184.599 98.086,156.42 146.709,181.071 151.414,208.198 		"/>
		<polygon fill="#F05161" points="109.117,188.057 79.246,195.989 129.063,218.179 153.054,204.706 		"/>
		<polygon fill="#44546D" points="140.274,202.886 109.117,188.057 110.758,184.599 141.932,199.428 		"/>
		<path fill="#EFB742" d="M217.059,229.604c-9.107-5.222-20.105-10.962-32.118-16.682c-33.884-16.132-62.918-25.863-64.861-21.764
			c-1.96,4.1,23.92,20.479,57.802,36.609c11.87,5.633,23.135,10.499,32.849,14.26c1.516-2.246,2.942-4.725,4.226-7.397
			C215.758,232.937,216.453,231.262,217.059,229.604z"/>
		<path fill="#3E3C5D" d="M214.386,243.418c16.077,5.988,27.181,8.59,28.356,6.111c1.177-2.477-7.699-9.355-22.333-17.982
			c-0.57,1.568-1.247,3.137-1.996,4.741C217.184,238.855,215.829,241.244,214.386,243.418z"/>
		<path fill="#EFB742" d="M214.957,234.63c-1.283,2.673-2.709,5.151-4.226,7.397c1.249,0.48,2.46,0.927,3.655,1.391
			c1.442-2.175,2.797-4.563,4.028-7.13c0.749-1.604,1.425-3.173,1.996-4.741c-1.068-0.642-2.21-1.284-3.351-1.943
			C216.453,231.262,215.758,232.937,214.957,234.63z"/>
		<polygon fill="#3E3C5D" points="254.862,255.288 236.487,248.016 237.629,245.627 		"/>
	</g>
</g>
</svg>
