<?xml version="1.0" encoding="utf-8"?>
<!-- Generator: Adobe Illustrator 22.0.0, SVG Export Plug-In . SVG Version: 6.00 Build 0)  -->
<svg version="1.1" xmlns="http://www.w3.org/2000/svg" xmlns:xlink="http://www.w3.org/1999/xlink" x="0px" y="0px"
	 viewBox="0 0 512 512" style="enable-background:new 0 0 512 512;" xml:space="preserve">
<style type="text/css">
	.st0{fill:#EFEFEF;}
	.st1{fill:#EDEDED;}
	.st2{fill:#E1902B;}
	.st3{fill:#827382;}
	.st4{fill:#98CDE6;}
	.st5{clip-path:url(#SVGID_2_);fill:#43B06D;}
	.st6{clip-path:url(#SVGID_2_);fill:#4D917B;}
	.st7{fill:#FFDBC5;}
	.st8{fill:#E8B494;}
	.st9{fill:#DB4646;}
	.st10{fill:#E7AD84;}
	.st11{fill:#9EC853;}
	.st12{fill:#EBB290;}
	.st13{fill:#2961A5;}
	.st14{fill:#D49670;}
	.st15{fill:#4D917B;}
	.st16{fill:#78BEDE;}
	.st17{fill:#D4CDC1;}
	.st18{fill:#A18FA1;}
	.st19{fill:#3D2A3D;}
	.st20{fill:#FF826E;}
	.st21{fill:#E6A585;}
	.st22{fill:#142A7A;}
	.st23{fill:#FFD66C;}
	.st24{fill:#00D3D5;}
	.st25{fill:#B9EAF0;}
	.st26{fill:#EDB87B;}
	.st27{clip-path:url(#SVGID_4_);}
	.st28{fill:#D9904C;}
	.st29{fill:#F7B58D;}
	.st30{fill:#F7C8AB;}
	.st31{fill:#BABABA;}
	.st32{fill:#163A63;}
	.st33{fill:#F5BB47;}
	.st34{fill:#FFE999;}
	.st35{clip-path:url(#SVGID_6_);}
	.st36{fill:#B3B3B3;}
	.st37{fill:#F2C9B1;}
	.st38{clip-path:url(#SVGID_8_);}
	.st39{fill:#F2D7C4;}
	.st40{fill:#5D5660;}
	.st41{fill:#3B2D3F;}
	.st42{fill:#997999;}
	.st43{fill:#170F17;}
	.st44{clip-path:url(#SVGID_10_);}
</style>
<g id="Layer_6">
</g>
<g id="Layer_9">
</g>
<g id="Layer_7">
	<g>
		<g>
			<g>
				<path class="st15" d="M371,310c0,10.5-8.5,19-19,19H112c-10.5,0-19-8.5-19-19V169c0-10.5,8.5-19,19-19h240c10.5,0,19,8.5,19,19
					V310z"/>
				<path class="st11" d="M348.4,201.7c-19.1,0-34.5-15.5-34.5-34.5c0-0.3,0-0.6,0-0.9h-164c0,0.3,0,0.6,0,0.9
					c0,19.1-15.5,34.5-34.5,34.5c-2.1,0-4.1-0.2-6-0.5v78.7c2-0.3,4-0.5,6-0.5c18.4,0,33.4,14.4,34.5,32.5H314
					c1-18.1,16.1-32.5,34.5-32.5c2.1,0,4.1,0.2,6,0.5v-78.7C352.5,201.5,350.5,201.7,348.4,201.7z"/>
				<g>
					<g>
						<g>
							<path class="st15" d="M284.4,239.9c-0.4,28.9-24.3,52.1-53.2,51.6c-29-0.4-52.1-24.3-51.6-53.2c0.4-29,24.3-52.1,53.2-51.6
								C261.7,187.1,284.8,210.9,284.4,239.9z"/>
						</g>
					</g>
					<path class="st11" d="M251.1,236.9c-3.6-3.1-8.2-4.7-13.6-4.7h-0.7v-11.4h16.6V211h-16.6v-11.4H227V211h-2.4
						c-4.9,0-9,1.3-12.3,4c-3.5,2.9-5.3,6.7-5.3,11.4c0,4.8,1.8,8.6,5.3,11.5c3.3,2.7,7.4,4,12.3,4h2.4v15.4h-18.8v9.8H227v11.4h9.8
						v-11.4h0.7c5.4,0,10-1.5,13.6-4.5c3.8-3.2,5.7-7.5,5.7-12.8C256.8,244.5,254.9,240.2,251.1,236.9z M224.6,232.2
						c-1.9,0-3.5-0.5-4.8-1.5c-1.3-1-2-2.4-2-4.2c0-1.8,0.7-3.2,2-4.2c1.3-1,2.9-1.6,4.8-1.6h2.4v11.4H224.6z M244.5,255.6
						c-2,1.2-4.3,1.8-7,1.8h-0.7V242h0.7c2.7,0,5,0.6,6.9,1.7c2.3,1.4,3.5,3.3,3.5,5.8C247.9,252.1,246.8,254.1,244.5,255.6z"/>
				</g>
			</g>
			<polygon class="st0" points="401.8,283.8 322.5,265.5 340.8,344.8 359.1,326.5 389.6,357 414,332.6 383.5,302.1 			"/>
		</g>
	</g>
</g>
</svg>
